<?xml version="1.0" encoding="UTF-8"?>
<svg width="24px" height="24px" viewBox="0 0 24 24" version="1.1" xmlns="http://www.w3.org/2000/svg" xmlns:xlink="http://www.w3.org/1999/xlink">
    <title>Icon / Delete</title>
    <g id="Icon-/-Delete" stroke="none" stroke-width="1" fill="none" fill-rule="evenodd">
        <g id="noun_Delete_3775055" transform="translate(5.500000, 5.000000)" fill="#231F20" fill-rule="nonzero">
            <path d="M7.51111111,0 C8.46840468,0 9.24444444,0.783501688 9.24444444,1.75 L9.24444444,1.75 L9.24444444,2.33333333 L10.9777778,2.33333333 C11.9350713,2.33333333 12.7111111,3.11683502 12.7111111,4.08333333 L12.7111111,4.08333333 L12.7111111,5.25 C12.7111111,5.5721661 12.4524312,5.83333333 12.1333333,5.83333333 L12.1333333,5.83333333 L11.5555556,5.83333333 L11.5555556,11.0833333 C11.5536454,12.6933643 10.261364,13.9980714 8.66666667,14 L8.66666667,14 L4.04444444,14 C2.44974707,13.9980714 1.15746576,12.6933643 1.15555556,11.0833333 L1.15555556,11.0833333 L1.15555556,5.83333333 L0.577777778,5.83333333 C0.258679922,5.83333333 1.04822817e-12,5.5721661 1.04822817e-12,5.25 L1.04822817e-12,5.25 L1.04822817e-12,4.08333333 C1.04822817e-12,3.11683502 0.776039767,2.33333333 1.73333333,2.33333333 L1.73333333,2.33333333 L3.46666667,2.33333333 L3.46666667,1.75 C3.46666667,0.783501688 4.24270643,0 5.2,0 L5.2,0 Z M10.4,5.83333333 L2.31111111,5.83333333 L2.31111111,11.0833333 C2.31111111,12.0498316 3.08715088,12.8333333 4.04444444,12.8333333 L4.04444444,12.8333333 L8.66666667,12.8333333 C9.62396023,12.8333333 10.4,12.0498316 10.4,11.0833333 L10.4,11.0833333 L10.4,5.83333333 Z M6.35555556,7 C6.67465341,7 6.93333333,7.26116723 6.93333333,7.58333333 L6.93333333,7.58333333 L6.93333333,11.0833333 C6.93333333,11.4054994 6.67465341,11.6666667 6.35555556,11.6666667 C6.0364577,11.6666667 5.77777778,11.4054994 5.77777778,11.0833333 L5.77777778,11.0833333 L5.77777778,7.58333333 C5.77777778,7.26116723 6.0364577,7 6.35555556,7 Z M8.66666667,7 C8.98576452,7 9.24444444,7.26116723 9.24444444,7.58333333 L9.24444444,7.58333333 L9.24444444,11.0833333 C9.24444444,11.4054994 8.98576452,11.6666667 8.66666667,11.6666667 C8.34756881,11.6666667 8.08888889,11.4054994 8.08888889,11.0833333 L8.08888889,11.0833333 L8.08888889,7.58333333 C8.08888889,7.26116723 8.34756881,7 8.66666667,7 Z M4.04444444,7 C4.3635423,7 4.62222222,7.26116723 4.62222222,7.58333333 L4.62222222,7.58333333 L4.62222222,11.0833333 C4.62222222,11.4054994 4.3635423,11.6666667 4.04444444,11.6666667 C3.72534659,11.6666667 3.46666667,11.4054994 3.46666667,11.0833333 L3.46666667,11.0833333 L3.46666667,7.58333333 C3.46666667,7.26116723 3.72534659,7 4.04444444,7 Z M10.9777778,3.5 L1.73333333,3.5 C1.41423548,3.5 1.15555556,3.76116723 1.15555556,4.08333333 L1.15555556,4.08333333 L1.15555556,4.66666667 L11.5555556,4.66666667 L11.5555556,4.08333333 C11.5555556,3.76116723 11.2968756,3.5 10.9777778,3.5 L10.9777778,3.5 Z M7.51111111,1.16666667 L5.2,1.16666667 C4.88090214,1.16666667 4.62222222,1.4278339 4.62222222,1.75 L4.62222222,1.75 L4.62222222,2.33333333 L8.08888889,2.33333333 L8.08888889,1.75 C8.08888889,1.4278339 7.83020897,1.16666667 7.51111111,1.16666667 L7.51111111,1.16666667 Z" id="Combined-Shape"></path>
        </g>
    </g>
</svg>