<svg width="147" height="32" xmlns="http://www.w3.org/2000/svg" xmlns:xlink="http://www.w3.org/1999/xlink"><defs><path id="a" d="M14.642 21.72V.293H.375v21.429h14.267z"/><path id="c" d="M0 .355V10h9.644V.355H0z"/><path id="e" d="M0 .423v9.644h9.644V.423z"/></defs><g fill="none" fill-rule="evenodd"><path fill="#000" d="M31.776 26.922h3.586V5.493h-3.586zM39.92 15.654l6.869-10.16h-4.158L35.632 15.66l7.942 11.262h4.496z"/><g transform="translate(132.04 5.201)"><mask id="b" fill="#fff"><use xlink:href="#a"/></mask><path d="M2.875 21.72h11.767V2.792a2.5 2.5 0 0 0-2.5-2.499H.82V3.55h10.235v5.619h-8.18a2.5 2.5 0 0 0-2.5 2.5v7.553a2.5 2.5 0 0 0 2.5 2.5zm1.086-3.255h7.094v-6.04H3.96v6.04z" fill="#000" mask="url(#b)"/></g><path d="M127.058 5.493a2.5 2.5 0 0 1 2.5 2.5v7.04c0 1.38-1.12 2.5-2.5 2.5h-1.447l5.201 9.39h-3.927l-6.951-12.554h6.038V8.75h-7.236v18.171h-3.586V5.493h11.908zM99.198 7.993a2.5 2.5 0 0 1 2.5-2.5h10.416v3.258h-9.329v5.618h9.012v3.256h-9.012v6.041h9.329v3.256h-10.415a2.5 2.5 0 0 1-2.5-2.5V7.992zM83.743 7.993a2.5 2.5 0 0 1 2.5-2.5h10.266v3.258h-9.182v14.915h9.182v3.256H86.243a2.5 2.5 0 0 1-2.5-2.5V7.992zM65.8 7.993a2.5 2.5 0 0 1 2.5-2.5h9.82a2.5 2.5 0 0 1 2.5 2.5v16.43a2.5 2.5 0 0 1-2.5 2.5H68.3a2.5 2.5 0 0 1-2.5-2.5V7.992zm3.585 15.673h7.648V8.751h-7.648v14.915zM48.69 15.41V5.493h3.585v9.162h6.817V5.493h3.585v18.929a2.5 2.5 0 0 1-2.5 2.5l-10.625.002v-3.258l9.54.001v-5.756H51.19a2.5 2.5 0 0 1-2.5-2.5" fill="#000"/><g transform="translate(0 6.21)"><mask id="d" fill="#fff"><use xlink:href="#c"/></mask><path fill="#DB0D23" mask="url(#d)" d="M9.644.355H0V10z"/></g><g transform="translate(0 15.785)"><mask id="f" fill="#fff"><use xlink:href="#e"/></mask><path fill="#DB0D23" mask="url(#f)" d="M9.644 10.067H0V.423z"/></g><path fill="#DB0D23" d="M9.644 25.851l9.642-9.643-9.642-9.644z"/><path fill="#DB0D23" d="M19.286 6.564H9.644l6.061-6.06h9.642v9.643l-6.06 6.06zM19.286 25.851H9.644l6.061 6.06h9.642V22.27l-6.06-6.061z"/></g></svg>