<svg width="159" height="34" viewBox="0 0 159 34" fill="none" xmlns="http://www.w3.org/2000/svg">
<path d="M38.3327 28.5956H36.3801H34.4446V16.4185V5.40442H36.3801H38.3327V16.4185V28.5956Z" fill="black"/>
<path d="M43.2656 16.4014L50.7163 5.40442H46.2116L38.6238 16.4014L47.2393 28.5956H52.1036L43.2656 16.4014Z" fill="black"/>
<path d="M147.421 18.5392H155.112V25.0724H147.421V18.5392ZM146.24 28.5956H159V8.10663C159 6.6187 157.784 5.40442 156.294 5.40442H144.03V8.92756H155.129V15.0161H146.257C144.767 15.0161 143.55 16.2304 143.55 17.7183V25.8934C143.533 27.3813 144.749 28.5956 146.24 28.5956Z" fill="black"/>
<path d="M137.727 5.40442C139.217 5.40442 140.433 6.6187 140.433 8.10663V15.7344C140.433 17.2223 139.217 18.4366 137.727 18.4366H136.151L141.786 28.5956H137.539L130.002 15.0161H136.545V8.92756H128.7V28.5956H124.812V5.40442H137.727Z" fill="black"/>
<path d="M107.53 8.10663C107.53 6.6187 108.746 5.40442 110.236 5.40442H121.524V8.92756H111.418V15.0161H121.181V18.5392H111.418V25.0724H121.524V28.5956H110.236C108.746 28.5956 107.53 27.3813 107.53 25.8934V8.10663Z" fill="black"/>
<path d="M90.7789 8.10663C90.7789 6.6187 91.995 5.40442 93.4851 5.40442H104.618V8.92756H94.6669V25.0724H104.618V28.5956H93.4851C91.995 28.5956 90.7789 27.3813 90.7789 25.8934V8.10663Z" fill="black"/>
<path d="M75.2094 25.0724H83.4994V8.92756H75.2094V25.0724ZM71.3214 8.10663C71.3214 6.6187 72.5374 5.40442 74.0276 5.40442H84.6641C86.1543 5.40442 87.3704 6.6187 87.3704 8.10663V25.8934C87.3704 27.3813 86.1543 28.5956 84.6641 28.5956H74.0276C72.5374 28.5956 71.3214 27.3813 71.3214 25.8934V8.10663Z" fill="black"/>
<path d="M52.7716 16.1278V5.40442H56.6597V15.3239H64.059V5.40442H67.9471V25.8934C67.9471 27.3813 66.731 28.5956 65.2409 28.5956H53.7308V25.0724C53.7308 25.0724 63.6651 25.0724 64.0761 25.0724V18.8471H55.5121C53.9877 18.8471 52.7716 17.6328 52.7716 16.1278Z" fill="black"/>
<path d="M27.4734 0H17.0253L10.4481 6.5674H0V17V27.4326H10.4481L17.0253 34H27.4734V23.5674L20.8963 17L27.4734 10.4326V0ZM20.9134 17V27.4326H10.4481L0 17L10.4481 6.5674V27.4497L20.9134 17L10.4653 6.5674H20.9134V17Z" fill="#DF0523"/>
</svg>
